<svg id="Calque_1" data-name="Calque 1" xmlns="http://www.w3.org/2000/svg" viewBox="0 0 46.6 46.6"><defs><style>.cls-1{fill:#da3d5c;}</style></defs><title>iconlist</title><path class="cls-1" d="M47.2,24.8H45.81a20.51,20.51,0,1,1-6-14.5,20.44,20.44,0,0,1,6,14.5H48.6a23.3,23.3,0,1,0-6.82,16.47A23.23,23.23,0,0,0,48.6,24.8H47.2Z" transform="translate(-2 -1.5)"/><g id="Wl35hB"><path class="cls-1" d="M29.38,27.27c-1.23,0-2.46,0-3.68,0a2,2,0,0,1-1.85-1.48,2,2,0,0,1,.91-2.29,2.88,2.88,0,0,1,1.27-.3q3.47,0,6.94,0a2,2,0,0,1,2,2.63,2,2,0,0,1-2,1.49c-1.22,0-2.43,0-3.65,0v0Z" transform="translate(-2 -1.5)"/><path class="cls-1" d="M29.37,20.12H25.92a2.07,2.07,0,0,1-1.89-1A2,2,0,0,1,25.45,16,6.19,6.19,0,0,1,26.23,16h6.42a2.34,2.34,0,0,1,1.83.63,2,2,0,0,1,.49,2,1.9,1.9,0,0,1-1.56,1.41,4.26,4.26,0,0,1-.78.07H29.37Z" transform="translate(-2 -1.5)"/><path class="cls-1" d="M29.42,34.51H26a2.09,2.09,0,0,1-2.08-1.3,2.06,2.06,0,0,1,1.42-2.75,5.49,5.49,0,0,1,1-.09h6.52a2.21,2.21,0,0,1,1.83.8,2,2,0,0,1-.78,3.14,4.06,4.06,0,0,1-1.17.2c-0.55,0-1.11,0-1.66,0H29.42Z" transform="translate(-2 -1.5)"/><path class="cls-1" d="M18.6,22.67a2.57,2.57,0,0,1,2.58,2.56,2.64,2.64,0,0,1-2.58,2.57A2.68,2.68,0,0,1,16,25.24,2.6,2.6,0,0,1,18.6,22.67Z" transform="translate(-2 -1.5)"/><path class="cls-1" d="M21.12,18.05a2.57,2.57,0,0,1-2.54,2.56A2.66,2.66,0,0,1,16,18a2.68,2.68,0,0,1,2.58-2.52A2.59,2.59,0,0,1,21.12,18.05Z" transform="translate(-2 -1.5)"/><path class="cls-1" d="M18.61,29.9a2.55,2.55,0,0,1,2.57,2.53A2.66,2.66,0,0,1,18.63,35,2.69,2.69,0,0,1,16,32.49,2.58,2.58,0,0,1,18.61,29.9Z" transform="translate(-2 -1.5)"/></g></svg>