<svg id="Calque_1" data-name="Calque 1" xmlns="http://www.w3.org/2000/svg" viewBox="0 0 30.51 30.51"><defs><style>.cls-1{fill:#da3d5c;stroke:#da3d5c;stroke-miterlimit:10;}</style></defs><title>iconclock</title><g id="FNEdKh.tif"><path class="cls-1" d="M19.32,5.33h0.88l0.31,0a13.59,13.59,0,0,1,4.86,1.09,14.52,14.52,0,0,1,8.89,11.07c0.14,0.71.17,1.45,0.26,2.17v0.75c-0.07.65-.1,1.31-0.21,2A14.74,14.74,0,0,1,21.84,34.66c-0.57.08-1.14,0.12-1.71,0.18H19.38a2.5,2.5,0,0,0-.28,0,13.59,13.59,0,0,1-5-1.1A14.52,14.52,0,0,1,5.25,22.64C5.12,21.94,5.08,21.23,5,20.53q0-.44,0-0.88c0-.11,0-0.22,0-0.34A14.44,14.44,0,0,1,9.2,9.82a14.36,14.36,0,0,1,8.47-4.31C18.21,5.43,18.77,5.39,19.32,5.33ZM7.7,20.08A12.05,12.05,0,1,0,19.76,8,12.06,12.06,0,0,0,7.7,20.08Z" transform="translate(-4.5 -4.83)"/><path class="cls-1" d="M21.09,15.64c0,1.2,0,2.41,0,3.61a0.73,0.73,0,0,0,.19.46c1,1.07,2.11,2.12,3.17,3.18a1.29,1.29,0,0,1,.35,1.44,1.34,1.34,0,0,1-2.2.5L18.8,21a1.28,1.28,0,0,1-.38-0.93c0-2.69,0-5.38,0-8.06a1.33,1.33,0,0,1,2.66,0c0,1.2,0,2.41,0,3.61h0Z" transform="translate(-4.5 -4.83)"/></g></svg>