<svg id="Calque_1" data-name="Calque 1" xmlns="http://www.w3.org/2000/svg" viewBox="0 0 32.51 25.67"><defs><style>.cls-1{fill:#da3d5c;}</style></defs><title>iconmail</title><g id="pqY8Iu.tif"><path class="cls-1" d="M20,8.36H32.81a3.39,3.39,0,0,1,3.44,3.45q0,4.82,0,9.64c0,3,0,6.07,0,9.1a3.31,3.31,0,0,1-2,3.17,3.26,3.26,0,0,1-1.42.29H7.22a3.42,3.42,0,0,1-3.35-2.52,3.66,3.66,0,0,1-.12-0.93q0-9.39,0-18.79A3.39,3.39,0,0,1,7.17,8.36H20Zm12.81,6.5L32.66,15l-9.44,8.92c-0.59.55-1.16,1.13-1.79,1.63a2.77,2.77,0,0,1-3.51.11,11.38,11.38,0,0,1-1.37-1.23L7.33,15.34,7.18,15.2V30.59H32.82V14.86Zm-1.74-3.07H8.61l11,10.86Z" transform="translate(-3.75 -8.36)"/></g></svg>