<svg id="Calque_1" data-name="Calque 1" xmlns="http://www.w3.org/2000/svg" viewBox="0 0 46.6 46.6"><defs><style>.cls-1{fill:#da3d5c;}</style></defs><title>growthicon</title><path class="cls-1" d="M47.2,24.8H45.81a20.51,20.51,0,1,1-6-14.5,20.44,20.44,0,0,1,6,14.5H48.6a23.3,23.3,0,1,0-6.82,16.47A23.23,23.23,0,0,0,48.6,24.8H47.2Z" transform="translate(-2 -1.5)"/><g id="sUgbti.tif"><path class="cls-1" d="M36.51,32.64a0.93,0.93,0,0,1-1,.78c-0.91,0-1.83,0-2.74,0a0.93,0.93,0,0,1-.86-1.15q0-7.92,0-15.84a0.93,0.93,0,0,1,.86-1.15c0.91,0,1.83,0,2.74,0a0.93,0.93,0,0,1,1,.78v16.6Z" transform="translate(-2 -1.5)"/><path class="cls-1" d="M12.06,27.24a0.93,0.93,0,0,1,1-.78c0.92,0,1.84,0,2.77,0a0.93,0.93,0,0,1,.84,1.14q0,2.33,0,4.66a0.93,0.93,0,0,1-.86,1.15c-0.91,0-1.83,0-2.74,0a0.93,0.93,0,0,1-1-.78v-5.4Z" transform="translate(-2 -1.5)"/><path class="cls-1" d="M29.88,27.36q0,2.41,0,4.82c0,0.84-.28,1.22-0.9,1.22H26.17a0.94,0.94,0,0,1-.87-1.17q0-4.89,0-9.78a0.94,0.94,0,0,1,.85-1.14H29c0.59,0,.87.39,0.88,1.19q0,2.43,0,4.86h0Z" transform="translate(-2 -1.5)"/><path class="cls-1" d="M18.68,29.25c0-1,0-2,0-3a0.93,0.93,0,0,1,.85-1.14h2.84c0.6,0,.9.41,0.9,1.2q0,2.93,0,5.85c0,0.84-.29,1.23-0.9,1.23H19.53a0.92,0.92,0,0,1-.84-1.13Q18.68,30.77,18.68,29.25Z" transform="translate(-2 -1.5)"/></g></svg>