<svg id="Calque_1" data-name="Calque 1" xmlns="http://www.w3.org/2000/svg" viewBox="0 0 46.6 46.6"><defs><style>.cls-1{fill:#da3d5c;}</style></defs><title>staricon</title><path class="cls-1" d="M47.2,24.8H45.81a20.51,20.51,0,1,1-6-14.5,20.44,20.44,0,0,1,6,14.5H48.6a23.3,23.3,0,1,0-6.82,16.47A23.23,23.23,0,0,0,48.6,24.8H47.2Z" transform="translate(-2 -1.5)"/><g id="kKYNwh.tif"><path class="cls-1" d="M25.12,14.1h0.36a1.16,1.16,0,0,1,.69.67q1.4,2.86,2.83,5.72a0.39,0.39,0,0,0,.24.19c0.65,0.11,1.31.19,2,.29l4.62,0.67a0.83,0.83,0,0,1,.72.68,0.91,0.91,0,0,1-.32.84l-4.63,4.49a0.39,0.39,0,0,0-.13.4q0.52,3,1,5.91a3,3,0,0,1,.08.85,0.84,0.84,0,0,1-1.29.56l-5.75-3a0.39,0.39,0,0,0-.41,0l-5.73,3a0.87,0.87,0,0,1-1.31-1c0.37-2.12.73-4.24,1.1-6.35A0.37,0.37,0,0,0,19,27.66q-2.25-2.17-4.48-4.36a5.88,5.88,0,0,1-.49-0.63V22.27a1,1,0,0,1,1-.68l0.13,0,6.13-.89a0.35,0.35,0,0,0,.31-0.21c0.94-1.91,1.89-3.81,2.82-5.71A1.16,1.16,0,0,1,25.12,14.1Z" transform="translate(-2 -1.5)"/></g></svg>